<?xml version="1.0" encoding="UTF-8"?>
<svg width="320px" height="228px" viewBox="0 0 320 228" version="1.1" xmlns="http://www.w3.org/2000/svg" xmlns:xlink="http://www.w3.org/1999/xlink">
    <!-- Generator: Sketch 59.1 (86144) - https://sketch.com -->
    <title>logo white</title>
    <desc>Created with Sketch.</desc>
    <defs>
        <path d="M211.63505,87.9979541 L212.271,88.255 L212.517187,88.378891 C212.855422,88.5493539 213.140437,88.6952445 213.371012,88.8118788 C199.21822,82.5654422 179.363056,82.3555842 151.756841,103.29823 C122.756841,125.29823 95.7568412,189.29823 96.7568412,206.29823 C97.53976,219.607851 79.3208576,175.912008 82.4116925,136.637838 C82.3784522,139.766767 82.6720141,141.311943 83,140 C114.241314,119.00174 172.606453,72.8924696 211.63505,87.9979541 Z M284.756841,6.29823008 C300.368231,12.0050242 319.756841,32.2982301 319.756841,32.2982301 L319.666958,32.3076531 C317.750141,32.5250301 285.846841,36.9482301 288.756841,90.2982301 C289.08243,96.2673642 265,57 258,53 C238.941708,41.565025 225,36.2982301 198.756841,36.2982301 C172.513682,36.2982301 169.756841,48.2982301 169.756841,48.2982301 C169.756841,48.2982301 228.513228,36.225542 247.756841,68.2982301 C256.756841,83.2982301 250.756841,111.29823 242.756841,111.29823 C238.530219,111.29823 229.979373,96.4640869 214.077485,89.1278915 C214.111404,89.1274552 214.085714,89.0857143 214,89 C213.61,88.82 213.217888,88.6465573 212.823713,88.4795802 L212.271,88.255 C205.097152,84.6654327 177.33,71.9489285 138.32,86.0589285 C110.97095,95.951138 95.414158,101.36732 90.5038434,106.761387 C90.585822,106.604895 90.6709621,106.451319 90.7568412,106.29823 C56.7568412,120.517708 33.7568412,113.29823 33.7568412,113.29823 C33.7568412,113.29823 -27.2431588,94.2982301 14.7568412,19.2982301 C41.7568412,110.29823 120.756841,68.2982301 120.756841,68.2982301 C120.756841,68.2982301 169.255726,26.6346606 211.756841,9.29823008 C254.257956,-8.03820049 277.625013,3.69116714 284.756841,6.29823008 Z M272.63327,31 C272.63327,31 266.63327,45 277.63327,52 C282.63327,36 272.63327,31 272.63327,31 Z" id="path-1"></path>
    </defs>
    <g id="Page-2-Copy-4" stroke="none" stroke-width="1" fill="none" fill-rule="evenodd">
        <g id="logo-white" transform="translate(-119.000000, -159.000000)">
            <g id="fox" transform="translate(119.000000, 159.000000)">
                <mask id="mask-2" fill="white">
                    <use xlink:href="#path-1"></use>
                </mask>
                <use id="fox-2" fill="#FFFFFF" xlink:href="#path-1"></use>
            </g>
            <g id="Group" transform="translate(158.000000, 368.000000)" fill="#FFFFFF" fill-rule="nonzero">
                <path d="M8.92800114,0.864 L8.92800114,12.528 C8.92800114,13.3120039 8.88000162,13.9839972 8.78400114,14.544 C8.68800066,15.1040028 8.52000234,15.5639982 8.28000114,15.924 C8.03999994,16.2840018 7.71200322,16.5479992 7.29600114,16.716 C6.87999906,16.8840008 6.35200434,16.968 5.71200114,16.968 C4.8639969,16.968 4.22000334,16.8040016 3.78000114,16.476 C3.33999894,16.1479984 3.0240021,15.7520023 2.83200114,15.288 C2.64000018,14.8239977 2.5280013,14.3360026 2.49600114,13.824 L2.43456116,12.7334405 C2.43072116,12.6540805 2.42720116,12.5776004 2.42400114,12.504 L0.792001144,12.504 C0.792001144,13.2560038 0.856000504,13.9839965 0.984001144,14.688 C1.11200178,15.3920035 1.35199938,16.0119973 1.70400114,16.548 C2.0560029,17.0840027 2.54399802,17.5159984 3.16800114,17.844 C3.79200114,18.1720016 4.59199626,18.336 5.56800114,18.336 C6.49600578,18.336 7.27599798,18.232001 7.90800114,18.024 C8.5400043,17.815999 9.05199918,17.5040021 9.44400114,17.088 C9.8360031,16.6719979 10.1200003,16.1440032 10.2960011,15.504 C10.472002,14.864 10.5600011,14.1040044 10.5600011,13.224 L10.5600011,0.864 L8.92800114,0.864 Z M22.284001,9.408 L23.796001,9.408 C23.8280011,8.39999496 24.1479979,7.66800228 24.756001,7.212 C25.364004,6.756 26.1479962,6.528 27.108001,6.528 C27.5560032,6.528 27.975999,6.56399964 28.368001,6.636 C28.7600029,6.70800036 29.1039995,6.83999904 29.400001,7.032 C29.6960024,7.22400096 29.9280001,7.48399836 30.096001,7.812 C30.2640018,8.14000164 30.348001,8.55999744 30.348001,9.072 C30.348001,9.40800168 30.3040014,9.67999896 30.216001,9.888 C30.1280005,10.096001 30.0040018,10.2599994 29.844001,10.38 C29.6840002,10.5000006 29.4840022,10.5839998 29.244001,10.632 C29.0039998,10.6800002 28.7240026,10.7199998 28.404001,10.752 C27.5879969,10.8480005 26.7840049,10.9479995 25.992001,11.052 C25.199997,11.1560005 24.4880041,11.3359987 23.856001,11.592 C23.2239978,11.8480013 22.7160029,12.2199976 22.332001,12.708 C21.947999,13.1960024 21.756001,13.8719957 21.756001,14.736 C21.756001,15.3600031 21.8639999,15.8999977 22.080001,16.356 C22.296002,16.8120023 22.5919991,17.1879985 22.968001,17.484 C23.3440028,17.7800015 23.7839984,17.9959993 24.288001,18.132 C24.7920035,18.2680007 25.3319981,18.336 25.908001,18.336 C26.516004,18.336 27.0399988,18.2800006 27.480001,18.168 C27.9200032,18.0559994 28.3119992,17.896001 28.656001,17.688 C29.0000027,17.479999 29.3119996,17.2200016 29.592001,16.908 C29.8720024,16.5959984 30.1479996,16.240002 30.420001,15.84 L30.468001,15.84 C30.468001,16.1600016 30.4880008,16.4519987 30.528001,16.716 C30.5680012,16.9800013 30.6520003,17.207999 30.780001,17.4 C30.9080016,17.592001 31.0879998,17.7399995 31.320001,17.844 C31.5520021,17.9480005 31.859999,18 32.244001,18 L32.5290011,17.994 C32.6150009,17.99 32.6920006,17.984 32.760001,17.976 C32.8960016,17.9599999 33.0520001,17.9360002 33.228001,17.904 L33.228001,16.632 C33.0840002,16.6960003 32.9240018,16.728 32.748001,16.728 C32.155998,16.728 31.860001,16.424003 31.860001,15.816 L31.860001,9.24 C31.860001,8.40799584 31.7240023,7.7320026 31.452001,7.212 C31.1799996,6.6919974 30.8280031,6.28800144 30.396001,6 C29.9639988,5.71199856 29.4760037,5.51600052 28.932001,5.412 C28.3879982,5.30799948 27.8440037,5.256 27.300001,5.256 C26.5799974,5.256 25.9240039,5.3359992 25.332001,5.496 C24.739998,5.6560008 24.2240032,5.90399832 23.784001,6.24 C23.3439988,6.57600168 22.9960022,7.00799736 22.740001,7.536 C22.4839997,8.06400264 22.3320012,8.6879964 22.284001,9.408 Z M30.348001,11.232 L30.348001,13.2 C30.348001,13.808003 30.2320021,14.3519976 30.000001,14.832 C29.768001,15.3120024 29.4560029,15.7199983 29.064001,16.056 C28.671999,16.3920017 28.2120036,16.6479991 27.684001,16.824 C27.1559983,17.0000009 26.6040038,17.088 26.028001,17.088 C25.6759992,17.088 25.3320026,17.0320006 24.996001,16.92 C24.6599993,16.8079994 24.3640022,16.6440011 24.108001,16.428 C23.8519997,16.2119989 23.6480017,15.9560015 23.496001,15.66 C23.3440002,15.3639985 23.268001,15.0240019 23.268001,14.64 C23.268001,14.031997 23.4479992,13.5640016 23.808001,13.236 C24.1680028,12.9079984 24.6279982,12.6560009 25.188001,12.48 C25.7480038,12.3039991 26.3679976,12.1720004 27.048001,12.084 C27.7280044,11.9959996 28.3879978,11.8960006 29.028001,11.784 C29.236002,11.7519998 29.4759996,11.6960004 29.748001,11.616 C30.0200023,11.5359996 30.2040005,11.4080009 30.300001,11.232 L30.348001,11.232 Z M43.5840008,5.616 L43.5840008,18 L45.0960008,18 L45.0960008,11.088 C45.0960008,10.4319967 45.168,9.82800276 45.3120008,9.276 C45.4560015,8.72399724 45.6759993,8.24400204 45.9720008,7.836 C46.2680022,7.42799796 46.6519984,7.10800116 47.1240008,6.876 C47.5960031,6.64399884 48.1519976,6.528 48.7920008,6.528 C49.2720032,6.528 49.6799991,6.6079992 50.0160008,6.768 C50.3520024,6.9280008 50.6199998,7.1479986 50.8200008,7.428 C51.0200018,7.7080014 51.1640003,8.03599812 51.2520008,8.412 C51.3400012,8.78800188 51.3840008,9.18399792 51.3840008,9.6 L51.3840008,18 L52.8960008,18 L52.8960008,10.992 C52.8960008,10.4159971 52.9480002,9.86000268 53.0520008,9.324 C53.1560013,8.78799732 53.3359995,8.31200208 53.5920008,7.896 C53.848002,7.47999792 54.1919986,7.14800124 54.6240008,6.9 C55.0560029,6.65199876 55.5999975,6.528 56.2560008,6.528 C57.3440062,6.528 58.1039986,6.79599732 58.5360008,7.332 C58.9680029,7.86800268 59.1840008,8.64799488 59.1840008,9.672 L59.1840008,18 L60.6960008,18 L60.6960008,9.6 C60.6960008,6.70398552 59.3280144,5.256 56.5920008,5.256 C55.7759967,5.256 55.0080044,5.455998 54.2880008,5.856 C53.5679972,6.256 53.0240026,6.86399592 52.6560008,7.68 C52.4319996,6.86399592 51.9880041,6.256 51.3240008,5.856 C50.6599974,5.455998 49.9200048,5.256 49.1040008,5.256 C48.0959957,5.256 47.268004,5.47199784 46.6200008,5.904 C45.9719975,6.33600216 45.4480028,6.93599616 45.0480008,7.704 L44.9760008,7.704 L44.9760008,5.616 L43.5840008,5.616 Z M72.1320006,9.408 L73.6440006,9.408 C73.6760007,8.39999496 73.9959975,7.66800228 74.6040006,7.212 C75.2120036,6.756 75.9959958,6.528 76.9560006,6.528 C77.4040028,6.528 77.8239986,6.56399964 78.2160006,6.636 C78.6080025,6.70800036 78.9519991,6.83999904 79.2480006,7.032 C79.5440021,7.22400096 79.7759997,7.48399836 79.9440006,7.812 C80.1120014,8.14000164 80.1960006,8.55999744 80.1960006,9.072 C80.1960006,9.40800168 80.152001,9.67999896 80.0640006,9.888 C79.9760001,10.096001 79.8520014,10.2599994 79.6920006,10.38 C79.5319998,10.5000006 79.3320018,10.5839998 79.0920006,10.632 C78.8519994,10.6800002 78.5720022,10.7199998 78.2520006,10.752 C77.4359965,10.8480005 76.6320045,10.9479995 75.8400006,11.052 C75.0479966,11.1560005 74.3360037,11.3359987 73.7040006,11.592 C73.0719974,11.8480013 72.5640025,12.2199976 72.1800006,12.708 C71.7959987,13.1960024 71.6040006,13.8719957 71.6040006,14.736 C71.6040006,15.3600031 71.7119995,15.8999977 71.9280006,16.356 C72.1440017,16.8120023 72.4399987,17.1879985 72.8160006,17.484 C73.1920025,17.7800015 73.6319981,17.9959993 74.1360006,18.132 C74.6400031,18.2680007 75.1799977,18.336 75.7560006,18.336 C76.3640036,18.336 76.8879984,18.2800006 77.3280006,18.168 C77.7680028,18.0559994 78.1599989,17.896001 78.5040006,17.688 C78.8480023,17.479999 79.1599992,17.2200016 79.4400006,16.908 C79.720002,16.5959984 79.9959992,16.240002 80.2680006,15.84 L80.3160006,15.84 C80.3160006,16.1600016 80.3360004,16.4519987 80.3760006,16.716 C80.4160008,16.9800013 80.4999999,17.207999 80.6280006,17.4 C80.7560012,17.592001 80.9359994,17.7399995 81.1680006,17.844 C81.4000017,17.9480005 81.7079987,18 82.0920006,18 L82.3770007,17.994 C82.4630005,17.99 82.5400002,17.984 82.6080006,17.976 C82.7440013,17.9599999 82.8999997,17.9360002 83.0760006,17.904 L83.0760006,16.632 C82.9319999,16.6960003 82.7720015,16.728 82.5960006,16.728 C82.0039976,16.728 81.7080006,16.424003 81.7080006,15.816 L81.7080006,9.24 C81.7080006,8.40799584 81.5720019,7.7320026 81.3000006,7.212 C81.0279992,6.6919974 80.6760027,6.28800144 80.2440006,6 C79.8119984,5.71199856 79.3240033,5.51600052 78.7800006,5.412 C78.2359979,5.30799948 77.6920033,5.256 77.1480006,5.256 C76.427997,5.256 75.7720035,5.3359992 75.1800006,5.496 C74.5879976,5.6560008 74.0720028,5.90399832 73.6320006,6.24 C73.1919984,6.57600168 72.8440019,7.00799736 72.5880006,7.536 C72.3319993,8.06400264 72.1800008,8.6879964 72.1320006,9.408 Z M80.1960006,11.232 L80.1960006,13.2 C80.1960006,13.808003 80.0800017,14.3519976 79.8480006,14.832 C79.6160006,15.3120024 79.3040025,15.7199983 78.9120006,16.056 C78.5199986,16.3920017 78.0600032,16.6479991 77.5320006,16.824 C77.0039979,17.0000009 76.4520035,17.088 75.8760006,17.088 C75.5239988,17.088 75.1800023,17.0320006 74.8440006,16.92 C74.5079989,16.8079994 74.2120019,16.6440011 73.9560006,16.428 C73.6999993,16.2119989 73.4960013,15.9560015 73.3440006,15.66 C73.1919998,15.3639985 73.1160006,15.0240019 73.1160006,14.64 C73.1160006,14.031997 73.2959988,13.5640016 73.6560006,13.236 C74.0160024,12.9079984 74.4759978,12.6560009 75.0360006,12.48 C75.5960034,12.3039991 76.2159972,12.1720004 76.8960006,12.084 C77.576004,11.9959996 78.2359974,11.8960006 78.8760006,11.784 C79.0840016,11.7519998 79.3239992,11.6960004 79.5960006,11.616 C79.8680019,11.5359996 80.0520001,11.4080009 80.1480006,11.232 L80.1960006,11.232 Z M93.4560004,0.864 L93.4560004,18 L94.9680004,18 L94.9680004,0.864 L93.4560004,0.864 Z" id="JamalDahbur"></path>
                <path d="M124.5,16 L124.5,3 L128.11809,3 C129.11307,3 129.949745,3.14470373 130.628141,3.43411552 C131.306536,3.72352732 131.860551,4.14590577 132.290201,4.70126354 C132.719851,5.25662131 133.028894,5.9292981 133.217337,6.71931408 C133.40578,7.50933006 133.5,8.40492881 133.5,9.40613718 C133.5,10.4386333 133.398242,11.3185884 133.194724,12.0460289 C132.991205,12.7734693 132.731157,13.3796606 132.414573,13.8646209 C132.097988,14.3495812 131.739952,14.732852 131.340452,15.0144404 C130.940953,15.2960303 130.53769,15.5111304 130.130653,15.6597473 C129.723616,15.8083642 129.339198,15.902226 128.977387,15.9413357 L128.57216,15.978881 C128.38402,15.9929604 128.217589,16 128.072864,16 L124.5,16 Z M122.5,1 L122.5,18 L128.333333,18 C129.746039,18 130.968249,17.8015893 132,17.4047619 C133.031751,17.0079345 133.880949,16.4325435 134.547619,15.6785714 C135.214289,14.9245994 135.706348,13.9960373 136.02381,12.8928571 C136.341271,11.789677 136.5,10.5238167 136.5,9.0952381 C136.5,6.36506571 135.793658,4.33334 134.380952,3 C132.968247,1.66666 130.952394,1 128.333333,1 L122.5,1 Z M158.5,17.687037 C158.137858,17.8956801 157.635806,18 156.993827,18 C156.450615,18 156.01852,17.8515447 155.697531,17.5546296 C155.376542,17.2577146 155.216049,16.7722256 155.216049,16.0981481 C154.639915,16.7722256 153.96914,17.2577146 153.203704,17.5546296 C152.438268,17.8515447 151.611116,18 150.722222,18 C150.146088,18 149.598768,17.9358031 149.080247,17.8074074 C148.561726,17.6790117 148.113171,17.4783964 147.734568,17.2055556 C147.355965,16.9327147 147.055557,16.5756195 146.833333,16.1342593 C146.61111,15.692899 146.5,15.1592624 146.5,14.5333333 C146.5,13.827157 146.623456,13.249385 146.87037,12.8 C147.117285,12.350615 147.442385,11.9854952 147.845679,11.7046296 C148.248973,11.423764 148.709874,11.2111118 149.228395,11.0666667 C149.746916,10.9222215 150.277775,10.8018523 150.820988,10.7055556 C151.253089,10.6212959 151.668981,10.5528356 152.068672,10.5001737 L152.462963,10.4527778 C152.981484,10.3966047 153.43827,10.3163585 153.833333,10.212037 C154.228397,10.1077155 154.541151,9.95524792 154.771605,9.75462963 C155.002059,9.55401134 155.117284,9.26111304 155.117284,8.87592593 C155.117284,8.42654096 155.030865,8.06543346 154.858025,7.79259259 C154.685184,7.51975172 154.462964,7.31111183 154.191358,7.16666667 C153.919752,7.0222215 153.615228,6.92592617 153.277778,6.87777778 C152.940328,6.82962939 152.606998,6.80555556 152.277778,6.80555556 C151.388884,6.80555556 150.648151,6.97006008 150.055556,7.29907407 C149.46296,7.62808806 149.141976,8.24999543 149.092593,9.16481481 L146.993827,9.16481481 C147.026749,8.39444059 147.191357,7.74444709 147.487654,7.21481481 C147.783952,6.68518254 148.17901,6.25586584 148.67284,5.92685185 C149.166669,5.59783786 149.73045,5.36111183 150.364198,5.21666667 C150.997946,5.0722215 151.676951,5 152.401235,5 C152.977369,5 153.54938,5.04012306 154.117284,5.12037037 C154.685188,5.20061769 155.199586,5.36512221 155.660494,5.61388889 C156.121401,5.86265556 156.491768,6.21172615 156.771605,6.66111111 C157.051442,7.11049607 157.191358,7.69629269 157.191358,8.41851852 L157.191358,14.8222222 C157.191358,15.3037061 157.220164,15.656789 157.277778,15.8814815 C157.335391,16.106174 157.528805,16.2185185 157.858025,16.2185185 C158.039096,16.2185185 158.253085,16.1783955 158.5,16.0981481 L158.5,17.687037 Z M154.5,11 C154.251937,11.1960794 153.926359,11.3390518 153.523256,11.4289216 C153.120153,11.5187913 152.697677,11.59232 152.255814,11.6495098 C151.813951,11.7066996 151.368219,11.7720585 150.918605,11.8455882 C150.46899,11.919118 150.065893,12.0375809 149.709302,12.2009804 C149.352711,12.3643799 149.062017,12.5972207 148.837209,12.8995098 C148.612402,13.2017989 148.5,13.6143765 148.5,14.1372549 C148.5,14.4803939 148.565891,14.7704237 148.697674,15.0073529 C148.829458,15.2442822 149,15.4362738 149.209302,15.5833333 C149.418606,15.7303929 149.662789,15.836601 149.94186,15.9019608 C150.220932,15.9673206 150.515502,16 150.825581,16 C151.476747,16 152.034881,15.9060467 152.5,15.7181373 C152.965119,15.5302278 153.344961,15.2933021 153.639535,15.0073529 C153.93411,14.7214038 154.151162,14.4109494 154.290698,14.0759804 C154.430233,13.7410114 154.5,13.4264721 154.5,13.1323529 L154.5,11 Z M168.5,1 L168.5,18 L170.485981,18 L170.485981,11.047619 C170.485981,10.4920607 170.559968,9.98016107 170.707944,9.51190476 C170.85592,9.04364845 171.07788,8.63492238 171.373832,8.28571429 C171.669783,7.93650619 172.039717,7.66666762 172.483645,7.47619048 C172.927572,7.28571333 173.453268,7.19047619 174.060748,7.19047619 C174.823991,7.19047619 175.423674,7.41269619 175.859813,7.85714286 C176.295952,8.30158952 176.514019,8.9047581 176.514019,9.66666667 L176.514019,18 L178.5,18 L178.5,9.9047619 C178.5,9.2380919 178.433801,8.63095512 178.301402,8.08333333 C178.169002,7.53571155 177.939254,7.06349405 177.61215,6.66666667 C177.285045,6.26983929 176.8567,5.96031746 176.327103,5.73809524 C175.797505,5.5158719 175.135518,5.4047619 174.341121,5.4047619 C173.982864,5.4047619 173.61293,5.44444405 173.231308,5.52380952 C172.849687,5.603175 172.483647,5.72618964 172.133178,5.89285714 C171.782709,6.05952464 171.467291,6.27380821 171.186916,6.53571429 C170.906541,6.79762036 170.688474,7.11904571 170.53271,7.5 L170.485981,7.5 L170.485981,1 L168.5,1 Z M189.5,1 L189.5,17.742069 L191.581633,17.742069 L191.581633,16.1241379 L191.630612,16.1241379 C191.859185,16.48368 192.140815,16.7845965 192.47551,17.0268966 C192.810206,17.2691966 193.165304,17.460689 193.540816,17.6013793 C193.916328,17.7420697 194.295916,17.8436778 194.679592,17.9062069 C195.063267,17.9687359 195.410203,18 195.720408,18 C196.683678,18 197.528568,17.8358637 198.255102,17.5075862 C198.981636,17.1793087 199.585712,16.7298879 200.067347,16.1593103 C200.548982,15.5887328 200.908162,14.9204636 201.144898,14.1544828 C201.381634,13.3885019 201.5,12.5756365 201.5,11.7158621 C201.5,10.8560877 201.377552,10.0432222 201.132653,9.27724138 C200.887754,8.51126054 200.524492,7.83517534 200.042857,7.24896552 C199.561222,6.66275569 198.957146,6.19770287 198.230612,5.8537931 C197.504078,5.50988334 196.651025,5.33793103 195.671429,5.33793103 C194.789792,5.33793103 193.981636,5.4903433 193.246939,5.79517241 C192.512241,6.10000152 191.973471,6.58850239 191.630612,7.26068966 L191.581633,7.26068966 L191.581633,1 L189.5,1 Z M199.5,11.3964194 C199.5,11.9795426 199.432915,12.5473118 199.298742,13.0997442 C199.16457,13.6521767 198.946542,14.1432204 198.644654,14.57289 C198.342766,15.0025597 197.944447,15.3478248 197.449686,15.6086957 C196.954924,15.8695665 196.338578,16 195.600629,16 C194.86268,16 194.233755,15.8734028 193.713836,15.6202046 C193.193918,15.3670064 192.770442,15.0332502 192.443396,14.6189258 C192.116351,14.2046015 191.877359,13.7250667 191.726415,13.1803069 C191.575471,12.6355471 191.5,12.0716142 191.5,11.488491 C191.5,10.9360586 191.571278,10.391307 191.713836,9.85421995 C191.856395,9.31713286 192.087001,8.83759802 192.40566,8.41560102 C192.72432,7.99360403 193.135218,7.65217522 193.638365,7.39130435 C194.141512,7.13043348 194.753665,7 195.474843,7 C196.162477,7 196.762052,7.12276092 197.273585,7.36828645 C197.785118,7.61381197 198.204401,7.94373194 198.531447,8.35805627 C198.858492,8.77238059 199.101676,9.24424288 199.261006,9.77365729 C199.420336,10.3030717 199.5,10.843987 199.5,11.3964194 Z M222.5,17.7291667 L222.5,5 L220.514019,5 L220.514019,12.1893939 C220.514019,12.7638918 220.440032,13.2932425 220.292056,13.7774621 C220.14408,14.2616817 219.92212,14.6843416 219.626168,15.0454545 C219.330217,15.4065675 218.960283,15.6856051 218.516355,15.8825758 C218.072428,16.0795464 217.546732,16.1780303 216.939252,16.1780303 C216.176009,16.1780303 215.576326,15.9482346 215.140187,15.4886364 C214.704048,15.0290381 214.485981,14.405307 214.485981,13.6174242 L214.485981,5 L212.5,5 L212.5,13.3712121 C212.5,14.0606095 212.566199,14.6884441 212.698598,15.2547348 C212.830998,15.8210256 213.060746,16.3093414 213.38785,16.719697 C213.714955,17.1300526 214.1433,17.4460216 214.672897,17.6676136 C215.202495,17.8892057 215.864482,18 216.658879,18 C217.546733,18 218.317754,17.8153428 218.971963,17.4460227 C219.626171,17.0767027 220.163549,16.49811 220.584112,15.7102273 L220.630841,15.7102273 L220.630841,17.7291667 L222.5,17.7291667 Z M233.5,5.29789752 L235.264706,5.29789752 L235.264706,7.97590366 L235.308824,7.97590366 C235.764708,6.94400623 236.323526,6.18237907 236.985294,5.69099934 C237.647062,5.19961961 238.485289,4.97031251 239.5,5.00307116 L239.5,7.21426888 C238.749996,7.21426888 238.110297,7.32892244 237.580882,7.55823298 C237.051468,7.78754352 236.625002,8.12331463 236.301471,8.56555638 C235.97794,9.00779814 235.742648,9.54421296 235.595588,10.1748169 C235.448529,10.8054209 235.375,11.5301952 235.375,12.3491614 L235.375,18 L233.5,18 L233.5,5.29789752 Z" id="Dahbur"></path>
            </g>
        </g>
    </g>
</svg>